<svg width="135" height="67" viewBox="0 0 135 67" fill="none" xmlns="http://www.w3.org/2000/svg">
<g clip-path="url(#clip0_20_955)">
<path d="M61.3657 30.4556C61.3657 13.6339 47.6263 0 30.6829 0H12.2724V6.08885H30.6829C44.2399 6.08885 55.2276 16.999 55.2276 30.4556C55.2276 43.9122 44.9316 54.1168 31.9789 54.7846V48.6769C41.5414 48.0167 49.0895 40.1132 49.0895 30.4556C49.0895 20.7979 40.8459 12.1815 30.6791 12.1815H24.5448V18.2703H30.6791C37.4557 18.2703 42.9514 23.7254 42.9514 30.4556C42.9514 36.7481 38.1436 41.924 31.9751 42.5691V36.4086C34.742 35.8163 36.8133 33.3755 36.8133 30.4556C36.8133 27.0905 34.0655 24.363 30.6752 24.363C27.285 24.363 24.541 27.0905 24.541 30.4556C24.541 33.3755 26.6161 35.8163 29.3792 36.4086V42.5691C23.2107 41.9278 18.4029 36.7481 18.4029 30.4556V12.1815H12.2648V30.4556C12.2648 40.1132 19.8167 48.0167 29.3754 48.6769V54.7846C16.4227 54.1168 6.12669 43.4783 6.12669 30.4556V0H0V30.4556C0 46.8434 13.0401 60.2057 29.383 60.881V67H31.9789V60.881C48.3218 60.2057 61.3657 46.8434 61.3657 30.4556Z" fill="#004A98"/>
<path d="M67.5 18.2704H73.4709C76.2073 18.2704 78.4307 19.4738 78.4307 22.6993C78.4307 24.9251 77.5528 26.2832 75.7171 26.8453V26.8981C77.7314 27.2565 79.0236 28.46 79.0236 31.5572C79.0236 34.6545 76.8003 36.5483 73.3416 36.5483H67.5038V18.2742L67.5 18.2704ZM72.7715 25.9739C74.5541 25.9739 75.4852 24.7968 75.4852 23.0841C75.4852 20.9074 74.1664 20.4735 72.5131 20.4735H70.4455V25.9739H72.7715ZM73.3644 34.3451C75.1204 34.3451 76.0781 33.2171 76.0781 31.1196C76.0781 29.1503 74.8885 28.0224 73.1858 28.0224H70.4455V34.3451H73.3644Z" fill="#004A98"/>
<path d="M80.5705 18.2704H83.516V36.5445H80.5705V18.2704Z" fill="#004A98"/>
<path d="M85.3252 27.4074C85.3252 20.881 87.1875 17.912 91.4214 17.912C95.6554 17.912 97.5177 20.881 97.5177 27.4074C97.5177 33.9339 95.6554 36.9029 91.4214 36.9029C87.1875 36.9029 85.3252 33.9339 85.3252 27.4074ZM94.5722 27.332C94.5722 21.1903 93.1774 20.1151 91.4214 20.1151C89.6655 20.1151 88.2707 21.1903 88.2707 27.332C88.2707 33.4736 89.6655 34.7035 91.4214 34.7035C93.1774 34.7035 94.5722 33.6283 94.5722 27.332Z" fill="#004A98"/>
<path d="M104.982 18.2704H110.949C113.686 18.2704 115.909 19.4738 115.909 22.6993C115.909 24.9251 115.031 26.2832 113.196 26.8453V26.8981C115.21 27.2565 116.502 28.46 116.502 31.5572C116.502 34.6545 114.279 36.5483 110.816 36.5483H104.978V18.2742L104.982 18.2704ZM110.254 25.9739C112.036 25.9739 112.967 24.7968 112.967 23.0841C112.967 20.9074 111.649 20.4735 109.995 20.4735H107.928V25.9739H110.254ZM110.847 34.3451C112.603 34.3451 113.56 33.2171 113.56 31.1196C113.56 29.1503 112.371 28.0224 110.668 28.0224H107.928V34.3451H110.847Z" fill="#004A98"/>
<path d="M118.057 18.2704H121.002V36.5445H118.057V18.2704Z" fill="#004A98"/>
<path d="M122.807 27.4074C122.807 20.881 124.67 17.912 128.904 17.912C133.138 17.912 135 20.881 135 27.4074C135 33.9339 133.138 36.9029 128.904 36.9029C124.67 36.9029 122.807 33.9339 122.807 27.4074ZM132.054 27.332C132.054 21.1903 130.66 20.1151 128.904 20.1151C127.148 20.1151 125.749 21.1903 125.749 27.332C125.749 33.4736 127.144 34.7035 128.904 34.7035C130.663 34.7035 132.054 33.6283 132.054 27.332Z" fill="#004A98"/>
<path d="M71.2551 43.4972V43.6255C71.2551 44.7233 70.8218 45.7985 69.4193 45.7985C67.9181 45.7985 67.4506 44.8101 67.4506 42.6371C67.4506 40.4641 67.9181 39.4757 69.4269 39.4757C71.122 39.4757 71.2209 40.7546 71.2209 41.3846V41.494H70.2707V41.3921C70.2707 40.83 70.1035 40.1812 69.4193 40.2076C68.72 40.2076 68.4008 40.649 68.4008 42.6107C68.4008 44.5724 68.7162 45.0666 69.4193 45.0666C70.2099 45.0666 70.3049 44.165 70.3049 43.6028V43.501H71.2551V43.4972Z" fill="#004A98"/>
<path d="M72.5093 42.6371C72.5093 40.4641 73.1098 39.4757 74.478 39.4757C75.8463 39.4757 76.4468 40.4641 76.4468 42.6371C76.4468 44.8101 75.8463 45.7985 74.478 45.7985C73.1098 45.7985 72.5093 44.8101 72.5093 42.6371ZM75.4966 42.6107C75.4966 40.566 75.0443 40.2076 74.478 40.2076C73.9117 40.2076 73.4595 40.566 73.4595 42.6107C73.4595 44.6554 73.9117 45.0666 74.478 45.0666C75.0443 45.0666 75.4966 44.7082 75.4966 42.6107Z" fill="#004A98"/>
<path d="M78.0165 39.5927H79.5025L80.5553 44.1008H80.5705L81.6043 39.5927H83.0562V45.6777H82.1554V40.615H82.1402L80.9392 45.6777H80.1373L78.9362 40.615H78.921V45.6777H78.0203V39.5927H78.0165Z" fill="#004A98"/>
<path d="M85.6406 39.5927V43.9537C85.6406 44.7195 85.9409 45.0628 86.5148 45.0628C87.0887 45.0628 87.3813 44.7233 87.3813 43.9537V39.5927H88.3315V43.8782C88.3315 45.2854 87.6474 45.7947 86.511 45.7947C85.3746 45.7947 84.6829 45.2854 84.6829 43.8782V39.5927H85.633H85.6406Z" fill="#004A98"/>
<path d="M89.9734 39.5927H91.1326L92.8581 44.1272H92.8733V39.5927H93.7741V45.6777H92.6149L90.8894 41.0224H90.8742V45.6777H89.9734V39.5927Z" fill="#004A98"/>
<path d="M95.4464 39.5927H96.3965V45.6777H95.4464V39.5927Z" fill="#004A98"/>
<path d="M101.729 43.4972V43.6255C101.729 44.7233 101.296 45.7985 99.8932 45.7985C98.3919 45.7985 97.9244 44.8101 97.9244 42.6371C97.9244 40.4641 98.3919 39.4757 99.9008 39.4757C101.596 39.4757 101.695 40.7546 101.695 41.3846V41.494H100.745V41.3921C100.745 40.83 100.577 40.1812 99.8932 40.2076C99.19 40.2076 98.8746 40.649 98.8746 42.6107C98.8746 44.5724 99.19 45.0666 99.8932 45.0666C100.684 45.0666 100.779 44.165 100.779 43.6028V43.501H101.729V43.4972Z" fill="#004A98"/>
<path d="M104.253 39.5927H105.469L107.038 45.6777H106.046L105.678 44.1876H103.933L103.549 45.6777H102.557L104.253 39.5927ZM105.518 43.4104L104.834 40.4113H104.819L104.112 43.4104H105.522H105.518Z" fill="#004A98"/>
<path d="M111.846 43.4972V43.6255C111.846 44.7233 111.413 45.7985 110.011 45.7985C108.509 45.7985 108.042 44.8101 108.042 42.6371C108.042 40.4641 108.509 39.4757 110.018 39.4757C111.713 39.4757 111.812 40.7546 111.812 41.3846V41.494H110.862V41.3921C110.862 40.83 110.695 40.1812 110.011 40.2076C109.311 40.2076 108.992 40.649 108.992 42.6107C108.992 44.5724 109.307 45.0666 110.011 45.0666C110.805 45.0666 110.896 44.165 110.896 43.6028V43.501H111.846V43.4972Z" fill="#004A98"/>
<path d="M113.196 39.5927H114.146V45.6777H113.196V39.5927Z" fill="#004A98"/>
<path d="M115.674 42.6371C115.674 40.4641 116.274 39.4757 117.642 39.4757C119.011 39.4757 119.611 40.4641 119.611 42.6371C119.611 44.8101 119.011 45.7985 117.642 45.7985C116.274 45.7985 115.674 44.8101 115.674 42.6371ZM118.661 42.6107C118.661 40.566 118.209 40.2076 117.642 40.2076C117.076 40.2076 116.624 40.566 116.624 42.6107C116.624 44.6554 117.072 45.0666 117.642 45.0666C118.212 45.0666 118.661 44.7082 118.661 42.6107Z" fill="#004A98"/>
<path d="M121.181 39.5927H122.34L124.065 44.1272H124.081V39.5927H124.981V45.6777H123.822L122.097 41.0224H122.082V45.6777H121.181V39.5927Z" fill="#004A98"/>
<path d="M126.699 39.5927H129.922V40.4113H127.653V42.0976H129.789V42.9162H127.653V44.8591H129.991V45.6777H126.703V39.5927H126.699Z" fill="#004A98"/>
<path d="M132.172 43.7952V43.9461C132.172 44.6856 132.492 45.0628 133.149 45.0628C133.75 45.0628 134.05 44.629 134.05 44.18C134.05 43.5387 133.731 43.2595 133.198 43.0973L132.549 42.8672C131.682 42.5239 131.306 42.0674 131.306 41.196C131.306 40.0869 132.039 39.4757 133.157 39.4757C134.685 39.4757 134.84 40.449 134.84 41.079V41.2148H133.89V41.0866C133.89 40.532 133.647 40.2076 133.054 40.2076C132.644 40.2076 132.252 40.4377 132.252 41.0866C132.252 41.6072 132.511 41.8713 133.145 42.1202L133.788 42.3579C134.631 42.6635 134.996 43.1313 134.996 43.9688C134.996 45.2665 134.228 45.8022 133.027 45.8022C131.553 45.8022 131.218 44.7987 131.218 43.9424V43.799H132.168L132.172 43.7952Z" fill="#004A98"/>
</g>
<defs>
<clipPath id="clip0_20_955">
<rect width="135" height="67" fill="white"/>
</clipPath>
</defs>
</svg>
